<?xml version="1.0" standalone="no"?>
<!DOCTYPE svg PUBLIC "-//W3C//DTD SVG 20010904//EN"
 "http://www.w3.org/TR/2001/REC-SVG-20010904/DTD/svg10.dtd">
<svg version="1.0" xmlns="http://www.w3.org/2000/svg"
 width="44.000000pt" height="44.000000pt" viewBox="0 0 44.000000 44.000000"
 preserveAspectRatio="xMidYMid meet">

<g transform="translate(0.000000,44.000000) scale(0.100000,-0.100000)"
fill="#000000" stroke="none">
<path d="M20 220 l0 -200 200 0 200 0 0 200 0 200 -200 0 -200 0 0 -200z m250
86 c0 -7 -9 -16 -20 -19 -12 -3 -20 -14 -20 -26 0 -14 6 -21 20 -21 11 0 20
-7 20 -15 0 -8 -9 -15 -20 -15 -17 0 -20 -7 -20 -50 0 -38 -4 -50 -15 -50 -11
0 -15 12 -15 50 0 38 -4 50 -15 50 -8 0 -15 7 -15 15 0 8 7 15 15 15 10 0 15
10 15 30 0 30 20 49 53 50 9 0 17 -6 17 -14z"/>
</g>
</svg>
