<?xml version="1.0" standalone="no"?>
<!DOCTYPE svg PUBLIC "-//W3C//DTD SVG 20010904//EN"
 "http://www.w3.org/TR/2001/REC-SVG-20010904/DTD/svg10.dtd">
<svg version="1.0" xmlns="http://www.w3.org/2000/svg"
 width="44.000000pt" height="44.000000pt" viewBox="0 0 44.000000 44.000000"
 preserveAspectRatio="xMidYMid meet">

<g transform="translate(0.000000,44.000000) scale(0.100000,-0.100000)"
fill="#000000" stroke="none">
<path d="M20 220 l0 -200 200 0 200 0 0 200 0 200 -200 0 -200 0 0 -200z m275
90 c4 -6 15 -8 25 -5 18 6 22 -8 9 -30 -4 -5 -9 -27 -13 -48 -14 -78 -114
-136 -186 -109 l-25 10 28 7 c33 9 33 12 5 36 -13 10 -17 18 -11 19 8 0 4 9
-9 22 -13 13 -17 23 -10 26 8 2 8 10 0 28 -16 34 -6 38 33 15 54 -31 79 -35
79 -15 0 38 58 71 75 44z"/>
</g>
</svg>
