<?xml version="1.0" standalone="no"?>
<!DOCTYPE svg PUBLIC "-//W3C//DTD SVG 20010904//EN"
 "http://www.w3.org/TR/2001/REC-SVG-20010904/DTD/svg10.dtd">
<svg version="1.0" xmlns="http://www.w3.org/2000/svg"
 width="44.000000pt" height="44.000000pt" viewBox="0 0 44.000000 44.000000"
 preserveAspectRatio="xMidYMid meet">

<g transform="translate(0.000000,44.000000) scale(0.100000,-0.100000)"
fill="#000000" stroke="none">
<path d="M120 307 c0 -10 15 -13 58 -10 31 1 52 0 45 -3 -7 -3 -10 -16 -7 -33
4 -18 0 -32 -10 -40 -22 -19 -20 -34 9 -61 14 -13 25 -29 25 -37 0 -9 14 -13
45 -13 l45 0 0 70 c0 62 -2 70 -19 70 -12 0 -21 -8 -24 -22 l-4 -23 -2 23 c-1
16 -7 22 -23 23 -21 0 -21 1 -4 8 11 4 23 16 27 27 7 17 8 17 8 -3 1 -16 7
-23 21 -23 16 0 20 7 20 30 l0 30 -105 0 c-81 0 -105 -3 -105 -13z"/>
<path d="M137 283 c-11 -11 -8 -48 5 -61 17 -17 48 -15 55 4 14 36 -35 83 -60
57z"/>
<path d="M120 184 c0 -16 6 -24 18 -24 16 -1 16 -1 0 -11 -36 -21 -21 -39 32
-39 57 0 62 10 20 40 -16 12 -30 27 -30 35 0 7 -9 15 -20 18 -16 4 -20 0 -20
-19z"/>
</g>
</svg>
