<?xml version="1.0" standalone="no"?>
<!DOCTYPE svg PUBLIC "-//W3C//DTD SVG 20010904//EN"
 "http://www.w3.org/TR/2001/REC-SVG-20010904/DTD/svg10.dtd">
<svg version="1.0" xmlns="http://www.w3.org/2000/svg"
 width="44.000000pt" height="44.000000pt" viewBox="0 0 44.000000 44.000000"
 preserveAspectRatio="xMidYMid meet">

<g transform="translate(0.000000,44.000000) scale(0.100000,-0.100000)"
fill="#000000" stroke="none">
<path d="M20 220 l0 -200 200 0 200 0 0 200 0 200 -200 0 -200 0 0 -200z m308
73 c5 -32 -35 -32 -41 0 l-4 22 -8 -22 c-4 -11 -17 -24 -28 -28 l-22 -8 23 -4
c14 -3 22 -12 22 -24 0 -10 5 -19 10 -19 6 0 10 9 10 20 0 13 7 20 20 20 19 0
21 -5 18 -67 l-3 -68 -42 -3 c-34 -3 -43 0 -43 13 0 9 -12 27 -27 41 -25 23
-25 25 -8 44 11 12 16 30 13 49 -2 17 0 32 6 34 6 3 8 8 3 13 -4 4 -30 3 -57
-2 -47 -10 -60 -7 -43 10 4 4 50 5 103 4 90 -3 95 -4 98 -25z m-144 -19 c9
-23 7 -52 -3 -58 -25 -16 -57 27 -44 60 7 19 39 18 47 -2z m-24 -88 c0 -8 -7
-17 -16 -20 -23 -9 -24 -8 -24 14 0 13 7 20 20 20 11 0 20 -6 20 -14z m41 -46
c32 -18 21 -30 -25 -30 -45 0 -63 11 -51 30 8 13 51 13 76 0z"/>
</g>
</svg>
