<?xml version="1.0" standalone="no"?>
<!DOCTYPE svg PUBLIC "-//W3C//DTD SVG 20010904//EN"
 "http://www.w3.org/TR/2001/REC-SVG-20010904/DTD/svg10.dtd">
<svg version="1.0" xmlns="http://www.w3.org/2000/svg"
 width="44.000000pt" height="44.000000pt" viewBox="0 0 44.000000 44.000000"
 preserveAspectRatio="xMidYMid meet">

<g transform="translate(0.000000,44.000000) scale(0.100000,-0.100000)"
fill="#000000" stroke="none">
<path d="M206 304 c-9 -8 -16 -24 -16 -35 0 -10 -4 -19 -10 -19 -5 0 -10 -9
-10 -20 0 -11 5 -20 10 -20 6 0 10 -22 10 -50 0 -43 3 -50 20 -50 17 0 20 7
20 46 0 37 4 47 20 51 11 3 20 14 20 24 0 12 -7 19 -20 19 -11 0 -20 7 -20 15
0 8 9 15 20 15 13 0 20 7 20 20 0 25 -41 28 -64 4z"/>
</g>
</svg>
