<?xml version="1.0" standalone="no"?>
<!DOCTYPE svg PUBLIC "-//W3C//DTD SVG 20010904//EN"
 "http://www.w3.org/TR/2001/REC-SVG-20010904/DTD/svg10.dtd">
<svg version="1.0" xmlns="http://www.w3.org/2000/svg"
 width="44.000000pt" height="44.000000pt" viewBox="0 0 44.000000 44.000000"
 preserveAspectRatio="xMidYMid meet">

<g transform="translate(0.000000,44.000000) scale(0.100000,-0.100000)"
fill="#000000" stroke="none">
<path d="M174 309 c-49 -24 -69 -103 -37 -149 37 -54 49 -49 58 25 5 36 12 55
21 55 9 0 11 -10 7 -35 -4 -26 -2 -35 9 -35 22 0 38 21 38 50 0 50 -44 66 -81
29 -15 -15 -19 -28 -14 -46 4 -16 2 -22 -5 -18 -17 10 -11 61 8 78 23 21 76
22 96 1 19 -18 21 -75 4 -92 -7 -7 -24 -12 -39 -12 -24 0 -39 -15 -39 -41 0
-15 50 -10 80 8 114 67 14 240 -106 182z"/>
</g>
</svg>
