<?xml version="1.0" standalone="no"?>
<!DOCTYPE svg PUBLIC "-//W3C//DTD SVG 20010904//EN"
 "http://www.w3.org/TR/2001/REC-SVG-20010904/DTD/svg10.dtd">
<svg version="1.0" xmlns="http://www.w3.org/2000/svg"
 width="44.000000pt" height="44.000000pt" viewBox="0 0 44.000000 44.000000"
 preserveAspectRatio="xMidYMid meet">

<g transform="translate(0.000000,44.000000) scale(0.100000,-0.100000)"
fill="#000000" stroke="none">
<path d="M20 220 l0 -200 200 0 200 0 0 200 0 200 -200 0 -200 0 0 -200z m276
69 c49 -46 40 -124 -18 -159 -41 -25 -83 -27 -74 -4 3 9 6 19 6 23 0 4 12 7
26 6 39 0 71 46 58 82 -14 39 -57 58 -95 43 -36 -15 -53 -44 -45 -76 9 -33 26
-30 26 4 0 35 16 52 52 52 33 0 47 -35 28 -70 -14 -27 -36 -20 -32 11 4 38 -5
54 -23 39 -9 -7 -15 -20 -13 -29 1 -9 -2 -33 -6 -55 l-7 -38 -25 22 c-13 13
-26 37 -30 54 -18 97 100 162 172 95z"/>
</g>
</svg>
