<?xml version="1.0" standalone="no"?>
<!DOCTYPE svg PUBLIC "-//W3C//DTD SVG 20010904//EN"
 "http://www.w3.org/TR/2001/REC-SVG-20010904/DTD/svg10.dtd">
<svg version="1.0" xmlns="http://www.w3.org/2000/svg"
 width="340.000000pt" height="93.000000pt" viewBox="0 0 340.000000 93.000000"
 preserveAspectRatio="xMidYMid meet">

<g transform="translate(0.000000,93.000000) scale(0.100000,-0.100000)"
fill="#252525" stroke="none">
<path d="M658 884 c-72 -38 -37 -171 64 -244 59 -43 155 -70 247 -70 42 0 146
12 231 26 104 18 199 27 290 29 75 1 145 5 157 9 53 17 24 70 -58 106 -46 19
-65 22 -158 18 -93 -4 -122 -10 -231 -48 -207 -72 -351 -67 -462 15 -36 27
-49 43 -54 72 -6 32 -3 40 20 60 21 18 40 23 84 24 44 1 51 3 32 9 -42 13
-133 10 -162 -6z"/>
<path d="M2560 890 c-19 -6 -12 -8 32 -9 44 -1 63 -6 84 -24 23 -20 26 -28 20
-60 -5 -29 -18 -45 -54 -72 -110 -82 -254 -86 -462 -15 -108 37 -139 44 -230
48 -94 4 -112 2 -158 -18 -83 -36 -112 -89 -59 -106 12 -4 82 -8 157 -9 91 -2
186 -11 290 -29 85 -14 189 -26 231 -26 92 0 188 27 247 70 105 76 136 212 55
249 -27 12 -115 13 -153 1z"/>
<path d="M113 420 c-20 -12 -33 -28 -33 -40 0 -23 12 -25 40 -7 17 10 22 9 30
-3 6 -8 8 -24 5 -35 -17 -70 -37 -235 -31 -258 8 -33 37 -36 66 -7 16 16 18
28 13 68 -8 68 27 172 69 207 24 20 33 23 44 14 20 -16 18 -40 -12 -157 -28
-109 -26 -152 5 -152 29 0 48 31 49 81 0 81 73 202 103 172 5 -5 0 -44 -11
-91 -23 -96 -25 -123 -8 -140 22 -22 75 -14 109 16 l31 28 28 -28 c38 -38 96
-39 139 -2 l31 26 10 -26 c12 -32 51 -35 98 -6 l33 20 21 -20 c16 -15 36 -20
78 -20 134 0 192 119 103 212 -21 22 -23 28 -10 28 21 0 47 38 47 68 0 36 -43
72 -85 72 -49 0 -95 -44 -95 -92 0 -36 16 -64 68 -117 18 -18 32 -44 32 -57 0
-30 -41 -58 -71 -49 -19 6 -21 13 -17 61 4 51 4 54 -19 54 -16 0 -29 -10 -41
-31 -9 -17 -28 -44 -40 -60 -49 -60 -57 -30 -36 131 21 157 13 186 -42 146
-16 -12 -20 -31 -25 -113 -4 -62 -12 -110 -23 -130 -30 -58 -87 -78 -98 -35
-3 9 1 44 9 77 7 33 16 83 19 112 6 47 4 54 -20 78 -22 22 -33 26 -59 21 -38
-8 -67 -33 -67 -58 0 -19 25 -25 35 -8 10 16 33 12 39 -7 3 -10 -3 -53 -13
-96 -14 -61 -26 -86 -52 -113 -41 -42 -63 -45 -56 -6 2 15 11 60 18 100 12 64
11 77 -2 100 -18 33 -69 41 -105 17 -23 -15 -24 -14 -24 5 0 29 -44 70 -74 70
-14 0 -41 -14 -61 -31 -25 -22 -35 -27 -35 -16 0 18 -37 47 -60 47 -8 0 -30
-9 -47 -20z m986 -39 c12 -8 12 -14 1 -40 -10 -26 -15 -29 -27 -19 -26 21 -36
50 -22 59 18 11 30 11 48 0z"/>
<path d="M1654 421 c-34 -21 -72 -66 -98 -118 -11 -21 -31 -39 -61 -52 -56
-25 -63 -55 -10 -45 l34 6 -7 -38 c-18 -103 1 -144 52 -111 23 15 26 24 26 71
0 75 6 86 45 86 56 0 64 -7 54 -43 -13 -44 -11 -91 3 -105 28 -28 102 -6 136
40 12 17 15 16 46 -17 34 -36 56 -42 135 -36 41 3 86 25 99 47 7 13 13 11 40
-15 20 -21 41 -32 64 -33 94 -5 151 15 171 60 12 26 12 26 17 -18 4 -38 9 -46
28 -48 36 -5 49 13 55 76 10 90 12 93 65 90 l45 -3 1 -75 1 -75 33 -3 c28 -3
32 0 32 20 0 12 12 94 26 181 16 100 22 163 16 169 -15 15 -60 -47 -78 -108
l-15 -54 -45 0 c-24 0 -44 4 -44 8 0 5 7 31 15 58 23 76 21 84 -22 84 -21 0
-56 -5 -77 -10 -33 -7 -44 -5 -64 11 -32 25 -87 24 -136 -2 -36 -19 -39 -19
-57 -3 -25 22 -35 11 -23 -24 8 -22 5 -36 -14 -74 -13 -26 -27 -69 -29 -95 -7
-58 -16 -71 -70 -95 -99 -44 -150 29 -107 154 l15 46 36 -10 c70 -19 133 11
133 63 0 57 -81 77 -154 38 -36 -19 -39 -19 -57 -3 -25 22 -35 11 -23 -24 8
-22 5 -36 -14 -73 -13 -26 -26 -66 -29 -90 -6 -45 -53 -109 -80 -109 -19 0
-16 19 13 96 15 40 27 91 27 123 1 47 -2 56 -26 77 -34 29 -80 31 -123 5z
m403 -47 c5 -16 -24 -25 -54 -18 l-26 7 24 13 c27 15 51 14 56 -2z m270 0 c5
-16 -24 -25 -54 -18 l-26 7 24 13 c27 15 51 14 56 -2z m-599 -33 c2 -12 1 -34
-2 -47 -6 -22 -12 -24 -61 -24 -30 0 -55 2 -55 5 0 4 7 19 15 35 30 59 97 79
103 31z m727 -3 c-3 -13 -9 -34 -12 -47 -3 -13 -21 -32 -39 -43 -40 -23 -47
-52 -11 -43 22 6 23 4 19 -26 -4 -26 -6 -29 -14 -15 -9 16 -11 16 -32 -3 -32
-30 -92 -52 -121 -45 -54 13 -69 79 -40 165 l16 45 47 -9 c43 -9 54 -7 103 16
71 33 94 35 84 5z"/>
<path d="M2825 420 c-20 -23 -60 -152 -78 -253 -13 -80 -5 -100 42 -105 30 -3
31 -2 31 34 0 20 11 93 25 162 26 128 29 173 9 179 -6 2 -19 -6 -29 -17z"/>
<path d="M3030 413 c-73 -38 -113 -109 -114 -199 -1 -71 17 -105 74 -138 41
-24 134 -25 179 -2 34 18 91 89 91 114 0 8 11 25 25 38 30 28 33 48 5 41 -17
-4 -20 0 -20 27 0 21 -8 40 -23 54 -50 47 -110 12 -105 -61 2 -34 9 -45 36
-63 l32 -22 -26 -31 c-47 -56 -140 -61 -173 -9 -20 32 -15 110 9 158 28 56 70
73 152 64 49 -6 60 -4 56 7 -6 21 -69 49 -109 49 -21 0 -60 -12 -89 -27z m200
-130 c0 -18 -17 -16 -24 3 -8 22 4 40 15 23 5 -8 9 -20 9 -26z"/>
<path d="M1251 412 c-19 -10 -41 -28 -49 -40 -13 -20 -13 -22 4 -22 11 0 40 7
67 15 26 8 47 12 47 10 0 -3 -9 -37 -20 -77 -24 -89 -40 -200 -33 -228 5 -20
37 -27 59 -12 6 4 16 50 22 102 7 52 17 124 23 159 l12 64 53 -6 c47 -5 56 -3
69 16 8 12 15 25 15 29 0 5 -53 8 -118 8 -95 0 -124 -4 -151 -18z"/>
</g>
</svg>
